<?xml version="1.0" encoding="UTF-8" standalone="no"?>
<!DOCTYPE svg PUBLIC "-//W3C//DTD SVG 1.1//EN" "http://www.w3.org/Graphics/SVG/1.1/DTD/svg11.dtd">
<svg width="100%" height="100%" viewBox="0 0 500 500" version="1.1" xmlns="http://www.w3.org/2000/svg" xmlns:xlink="http://www.w3.org/1999/xlink" xml:space="preserve" xmlns:serif="http://www.serif.com/" style="fill-rule:evenodd;clip-rule:evenodd;stroke-linejoin:round;stroke-miterlimit:2;">
    <rect id="Artboard1" x="0" y="0" width="500" height="500" style="fill:rgb(87,90,75);"/>
    <g id="Artboard11" serif:id="Artboard1">
        <g transform="matrix(0.460679,0,0,0.460679,65.0928,65.5095)">
            <path d="M173.806,556.597L410.197,261.669C410.197,261.669 410.291,212.325 450.788,177.719C500.153,135.537 577.744,142.591 618.422,187.722C659.097,232.856 670.125,306.534 614.516,359.378C579.897,392.272 540.916,391.956 540.916,391.956L244.947,628.35L215.747,599.788L161.791,650.063C161.791,650.063 157.325,653.775 152.903,648.256C148.481,642.741 150.684,638 150.684,638L203.931,587.366L173.806,556.597ZM229.209,553.022L246.981,570.159L481.863,385.316C481.863,385.316 456.831,371.516 441.822,355.725C426.809,339.934 418.134,318.284 418.134,318.284L229.209,553.022ZM466.169,222.809C466.169,222.809 424.609,280.122 473.663,326.962C522.719,373.806 578.55,334.462 578.55,334.462C578.55,334.462 528.328,322.816 501.081,295.744C473.831,268.675 466.169,222.806 466.169,222.806L466.169,222.809ZM483.022,208.706C483.022,208.706 494.591,252.797 522.4,280.809C550.209,308.825 593.881,320.378 593.881,320.378C593.881,320.378 634.147,259.378 583.659,213.134C533.169,166.891 483.022,208.706 483.022,208.706Z" style="fill:white;"/>
        </g>
    </g>
</svg>
