<?xml version="1.0" encoding="UTF-8" standalone="no"?>
<!DOCTYPE svg PUBLIC "-//W3C//DTD SVG 1.1//EN" "http://www.w3.org/Graphics/SVG/1.1/DTD/svg11.dtd">
<svg width="100%" height="100%" viewBox="0 0 500 500" version="1.1" xmlns="http://www.w3.org/2000/svg" xmlns:xlink="http://www.w3.org/1999/xlink" xml:space="preserve" xmlns:serif="http://www.serif.com/" style="fill-rule:evenodd;clip-rule:evenodd;stroke-linejoin:round;stroke-miterlimit:2;">
    <rect id="Artboard1" x="0" y="0" width="500" height="500" style="fill:rgb(87,90,75);"/>
    <g id="Artboard11" serif:id="Artboard1">
        <g transform="matrix(0.58066,0,0,0.549474,70.1542,61.765)">
            <g id="primary" transform="matrix(0.472245,0,0,0.472245,120.828,153.661)">
                <path d="M453,173C418.907,144.431 387.448,112.86 359,78.667C350.029,67.893 335.177,63.879 322,68.667C308.833,73.427 300.006,85.999 300,100L300,458.667C275.336,442.187 246.329,433.389 216.667,433.389C134.379,433.389 66.667,501.101 66.667,583.389C66.667,665.676 134.379,733.389 216.667,733.389C298.954,733.389 366.667,665.676 366.667,583.389C366.667,583.37 366.667,583.352 366.667,583.333L366.667,185.333C381.321,200.119 397.029,213.821 413.667,226.333C434.665,237.1 447.923,258.797 447.923,282.394C447.923,295.24 443.995,307.783 436.667,318.333C434.434,322.9 433.273,327.917 433.273,333C433.273,351.319 448.348,366.393 466.667,366.393C479.402,366.393 491.073,359.108 496.667,347.667C531.829,287.643 512.272,209.415 453,173Z" style="fill:white;fill-rule:nonzero;"/>
            </g>
            <g id="secondary" transform="matrix(0.472245,0,0,0.472245,120.828,153.661)">
                <path d="M566.667,366.667C566.667,348.381 581.714,333.333 600,333.333L700,333.333C718.286,333.333 733.333,348.381 733.333,366.667C733.333,384.953 718.286,400 700,400L600,400C581.714,400 566.667,384.953 566.667,366.667ZM700,600L466.667,600C448.381,600 433.333,615.047 433.333,633.333C433.333,651.619 448.381,666.667 466.667,666.667L700,666.667C718.286,666.667 733.333,651.619 733.333,633.333C733.333,615.047 718.286,600 700,600ZM700,466.667L466.667,466.667C448.381,466.667 433.333,481.714 433.333,500C433.333,518.286 448.381,533.333 466.667,533.333L700,533.333C718.286,533.333 733.333,518.286 733.333,500C733.333,481.714 718.286,466.667 700,466.667Z" style="fill:white;fill-rule:nonzero;"/>
            </g>
        </g>
    </g>
</svg>
