<?xml version="1.0" standalone="no"?>
<!DOCTYPE svg PUBLIC "-//W3C//DTD SVG 20010904//EN"
 "http://www.w3.org/TR/2001/REC-SVG-20010904/DTD/svg10.dtd">
<svg version="1.0" xmlns="http://www.w3.org/2000/svg"
 width="700.000000pt" height="700.000000pt" viewBox="0 0 700.000000 700.000000"
 preserveAspectRatio="xMidYMid meet">
<metadata>
Created by potrace 1.14, written by Peter Selinger 2001-2017
</metadata>
<g transform="translate(0.000000,700.000000) scale(0.100000,-0.100000)"
fill="#000000" stroke="none">
<path d="M555 6984 c-210 -41 -415 -213 -504 -422 -54 -128 -51 24 -51 -3062
0 -3208 -7 -2942 76 -3110 39 -79 62 -110 133 -181 72 -72 102 -94 181 -132
172 -84 -102 -77 3110 -77 3110 0 2932 -3 3065 53 154 65 286 189 359 339 83
169 76 -102 76 3108 0 3210 7 2939 -76 3108 -96 196 -279 337 -491 378 -110
21 -5771 19 -5878 -2z m4420 -1399 c128 -21 241 -143 264 -285 15 -89 15
-3510 1 -3599 -54 -332 -496 -403 -649 -103 -11 22 -25 68 -31 103 -14 89 -14
3510 1 3599 24 149 138 265 281 289 29 4 62 7 73 5 11 -1 38 -6 60 -9z m-1400
-1400 c128 -21 241 -143 264 -285 15 -88 15 -2111 1 -2199 -54 -332 -496 -403
-649 -103 -11 22 -25 68 -31 103 -14 88 -14 2111 1 2199 24 149 138 265 281
289 29 4 62 7 73 5 11 -1 38 -6 60 -9z m-1400 -1400 c128 -21 241 -143 264
-285 14 -84 14 -715 1 -799 -54 -332 -496 -403 -649 -103 -11 22 -25 68 -31
103 -13 84 -13 715 1 799 24 149 138 265 281 289 29 4 62 7 73 5 11 -1 38 -6
60 -9z"/>
</g>
</svg>
