<?xml version="1.0" encoding="UTF-8" standalone="no"?>
<!DOCTYPE svg PUBLIC "-//W3C//DTD SVG 1.1//EN" "http://www.w3.org/Graphics/SVG/1.1/DTD/svg11.dtd">
<svg width="100%" height="100%" viewBox="0 0 800 800" version="1.1" xmlns="http://www.w3.org/2000/svg" xmlns:xlink="http://www.w3.org/1999/xlink" xml:space="preserve" xmlns:serif="http://www.serif.com/" style="fill-rule:evenodd;clip-rule:evenodd;stroke-linejoin:round;stroke-miterlimit:2;">
    <rect id="Icon" x="0" y="0" width="800" height="800" style="fill:none;"/>
    <g id="Icon1" serif:id="Icon">
        <g id="primary" transform="matrix(1.2,0,0,1.2,-80.0005,-80.0005)">
            <path d="M733.333,133.333C733.333,96.539 703.461,66.667 666.667,66.667L133.333,66.667C96.539,66.667 66.667,96.539 66.667,133.333L66.667,666.667C66.667,703.461 96.539,733.333 133.333,733.333L666.667,733.333C703.461,733.333 733.333,703.461 733.333,666.667L733.333,133.333Z" style="fill:rgb(25,20,20);"/>
        </g>
        <g transform="matrix(1.01053,0,0,1.01053,12.6312,-21.0531)">
            <path d="M666.667,133.334C666.667,123.449 662.28,114.075 654.69,107.742C647.103,101.409 637.097,98.77 627.37,100.538L260.704,167.205C244.854,170.086 233.333,183.891 233.333,200L233.333,539.023C222.907,535.34 211.688,533.333 200,533.333C144.772,533.333 100,578.107 100,633.333C100,688.563 144.772,733.333 200,733.333C255.228,733.333 300,688.563 300,633.333L300,361.153L600,306.607L600,472.357C589.573,468.673 578.353,466.667 566.667,466.667C511.437,466.667 466.667,511.44 466.667,566.667C466.667,621.897 511.437,666.667 566.667,666.667C621.897,666.667 666.667,621.897 666.667,566.667L666.667,133.334ZM600,566.667C600,548.257 585.077,533.333 566.667,533.333C548.257,533.333 533.333,548.257 533.333,566.667C533.333,585.077 548.257,600 566.667,600C585.077,600 600,585.077 600,566.667ZM233.333,633.333C233.333,614.923 218.409,600 200,600C181.591,600 166.667,614.923 166.667,633.333C166.667,651.743 181.591,666.667 200,666.667C218.409,666.667 233.333,651.743 233.333,633.333ZM600,238.848L300,293.393L300,227.819L600,173.274L600,238.848Z" style="fill:white;fill-opacity:0.05;"/>
        </g>
        <g id="secondary" transform="matrix(1.2,0,0,1.2,-80.0005,-80.0005)">
            <path d="M533.333,600C515.047,600 500,584.953 500,566.667L500,233.333C500,215.047 515.047,200 533.333,200C551.619,200 566.667,215.047 566.667,233.333L566.667,566.667C566.667,584.953 551.619,600 533.333,600ZM400,600C381.714,600 366.667,584.953 366.667,566.667L366.667,366.667C366.667,348.381 381.714,333.333 400,333.333C418.286,333.333 433.333,348.381 433.333,366.667L433.333,566.667C433.333,584.953 418.286,600 400,600ZM266.667,600C248.381,600 233.333,584.953 233.333,566.667L233.333,500C233.333,481.714 248.381,466.667 266.667,466.667C284.953,466.667 300,481.714 300,500L300,566.667C300,584.953 284.953,600 266.667,600Z" style="fill:rgb(29,185,84);fill-rule:nonzero;"/>
        </g>
    </g>
</svg>
